<svg id="SvgjsSvg1001" width="288" height="288" xmlns="http://www.w3.org/2000/svg" version="1.1" xmlns:xlink="http://www.w3.org/1999/xlink" xmlns:svgjs="http://svgjs.com/svgjs"><defs id="SvgjsDefs1002"></defs><g id="SvgjsG1008" transform="matrix(0.9167,0,0,0.9167,11.995200000000011,11.995200000000011)"><svg xmlns="http://www.w3.org/2000/svg" id="Layer_1" width="288" height="288" viewBox="0 0 80 80"><g id="g3342" fill="#000000" class="color000 svgShape"><circle id="circle3934-5-9-7-6" cx="40" cy="40" r="40" fill="#321a92" fill-rule="evenodd" class="color239fdb svgShape"></circle><path id="XMLID_512_" fill="#ffffff" d="m 24,24 c -1.7,0 -3,1.3 -3,3 l 0,20 c 0,1.7 1.3,3 3,3 l 12,0 0,6 -5.5,0 c -0.6,0 -1,0.4 -1,1 0,0.6 0.4,1 1,1 l 6.5,0 6,0 6.5,0 c 0.6,0 1,-0.4 1,-1 0,-0.6 -0.4,-1 -1,-1 l -5.5,0 0,-6 12,0 c 1.7,0 3,-1.3 3,-3 l 0,-20 c 0,-1.7 -1.3,-3 -3,-3 l -32,0 z m 0,2 32,0 c 0.6,0 1,0.4 1,1 l 0,15 -34,0 0,-15 c 0,-0.6 0.4,-1 1,-1 z m 16,2.699219 c -0.6,0 -1,0.4 -1,1 l 0,0.90039 C 37.3,30.999609 36,32.6 36,34.5 l 0,2 c -0.6,0 -1,0.4 -1,1 0,0.6 0.4,1 1,1 l 2.5,0 c 0,0.8 0.7,1.5 1.5,1.5 0.8,0 1.5,-0.7 1.5,-1.5 l 2.5,0 c 0.6,0 1,-0.4 1,-1 0,-0.6 -0.4,-1 -1,-1 l 0,-2 c 0,-1.9 -1.3,-3.400391 -3,-3.900391 l 0,-0.90039 c 0,-0.6 -0.4,-1 -1,-1 z M 40,32.5 c 1.1,0 2,0.9 2,2 l 0,2 -4,0 0,-2 c 0,-1.1 0.9,-2 2,-2 z M 23,44 l 34,0 0,3 c 0,0.6 -0.4,1 -1,1 l -13,0 -6,0 -13,0 c -0.6,0 -1,-0.4 -1,-1 l 0,-3 z m 17,1 a 1,1 0 0 0 -1,1 1,1 0 0 0 1,1 1,1 0 0 0 1,-1 1,1 0 0 0 -1,-1 z m -2,5 4,0 0,6 -4,0 0,-6 z" class="colorfff svgShape"></path></g></svg></g></svg>